<?xml version="1.0" encoding="utf-8"?>
<!-- Generator: Adobe Illustrator 16.0.0, SVG Export Plug-In . SVG Version: 6.00 Build 0)  -->
<!DOCTYPE svg PUBLIC "-//W3C//DTD SVG 1.0//EN" "http://www.w3.org/TR/2001/REC-SVG-20010904/DTD/svg10.dtd">
<svg version="1.0" id="Layer_1" xmlns="http://www.w3.org/2000/svg" xmlns:xlink="http://www.w3.org/1999/xlink" x="0px" y="0px"
	 width="200px" height="200px" viewBox="0 0 200 200" enable-background="new 0 0 200 200" xml:space="preserve">
<g>
	<path fill="#282829" d="M165.405,79.601c-3.441-1.427-7.469,0.166-8.811,3.689l-5.957,14.264l-5.787-14.264
		c-1.428-3.523-5.369-5.117-8.895-3.689c-3.439,1.424-5.115,5.369-3.689,8.892l11.912,29.112l-1.258,3.104
		c-0.672,1.678-1.846,3.021-3.273,3.942c-1.594,1.006-3.271,1.428-4.949,1.428c-3.271-0.085-6.04,2.517-6.123,5.872
		c-0.084,3.271,2.6,6.041,5.873,6.125h0.418c3.943,0,7.803-1.174,11.158-3.273c3.523-2.264,6.293-5.537,7.971-9.396v-0.084
		l8.809-21.225l0.252-0.756l6.123-14.85C170.522,84.97,168.845,81.025,165.405,79.601z"/>
	<path fill="#282829" d="M131.608,115.423v-15.115h-0.004c0-0.025,0.004-0.046,0.004-0.07c0-9.9-6.879-18.184-16.109-20.383v-0.011
		c-0.078-0.018-0.156-0.03-0.234-0.049c-0.25-0.056-0.503-0.109-0.756-0.158c-0.506-0.096-1.018-0.174-1.534-0.234
		c-0.163-0.018-0.327-0.03-0.489-0.044c-0.609-0.056-1.225-0.094-1.852-0.094c-11.576,0-20.973,9.395-20.973,20.974
		c0,11.578,9.396,20.974,20.973,20.974c0.617,0,1.229-0.038,1.834-0.092c0.204-0.018,0.408-0.038,0.613-0.063
		c0.428-0.052,0.854-0.115,1.276-0.194c0.441-0.08,0.874-0.177,1.304-0.283c0.174-0.044,0.346-0.087,0.516-0.134
		c1.195-0.328,2.346-0.757,3.444-1.281c0.065-0.032,0.131-0.064,0.197-0.094c0.355-0.175,0.712-0.348,1.054-0.54
		c1.092,1.59,2.852,2.679,4.947,2.679C129.008,121.211,131.608,118.61,131.608,115.423z M118.435,100.308L118.435,100.308
		c-0.02,2.072-0.854,3.975-2.263,5.467c-1.511,1.426-3.44,2.266-5.538,2.266c-2.097,0-4.026-0.839-5.535-2.266
		c-1.51-1.51-2.266-3.438-2.266-5.537c0-2.096,0.756-4.026,2.266-5.537c1.509-1.51,3.438-2.265,5.535-2.265
		c0.412,0,0.814,0.038,1.211,0.096c0.059,0.008,0.118,0.015,0.176,0.024c0.383,0.065,0.757,0.159,1.121,0.279
		c0.053,0.019,0.105,0.038,0.158,0.056c0.375,0.132,0.743,0.288,1.094,0.48c0.01,0.006,0.021,0.012,0.03,0.018
		c0.37,0.204,0.728,0.439,1.065,0.71c0.235,0.186,0.463,0.384,0.683,0.601c1.509,1.511,2.265,3.441,2.265,5.537
		C118.437,100.262,118.435,100.283,118.435,100.308z"/>
	<path fill="#282829" d="M66.462,79.179c-1.399,0-2.773,0.147-4.109,0.417v0.063c-9.652,1.881-16.948,10.379-16.948,20.578
		c0,0.024,0.003,0.045,0.003,0.07h-0.003v10.333v0.67v16.612c0,3.607,3.02,6.628,6.711,6.628c3.606,0,6.628-3.021,6.628-6.628
		v-8.138c2.349,1.007,5.033,1.51,7.719,1.51c11.66,0,21.058-9.395,21.058-21.058C87.52,88.577,78.122,79.179,66.462,79.179z
		 M71.999,105.775c-1.51,1.51-3.441,2.266-5.537,2.266c-0.761,0-1.498-0.103-2.201-0.301c-0.028-0.009-0.058-0.013-0.087-0.022
		c-0.198-0.058-0.39-0.128-0.581-0.203c-0.046-0.016-0.092-0.03-0.135-0.047c-0.927-0.377-1.782-0.94-2.533-1.692
		c-1.492-1.411-2.326-3.395-2.346-5.467l0,0c0-0.025-0.004-0.046-0.004-0.07c0-2.096,0.756-4.026,2.266-5.537
		c0.465-0.465,0.975-0.85,1.512-1.171v0.002c0.242-0.148,0.496-0.274,0.752-0.397c1.012-0.46,2.115-0.699,3.273-0.699v-0.079
		c0.027,0,0.056-0.005,0.084-0.005c2.096,0,4.027,0.839,5.537,2.265c1.51,1.51,2.35,3.525,2.35,5.621
		C74.349,102.336,73.509,104.348,71.999,105.775z"/>
	<path fill="#0095DA" d="M9.028,143.125c21.813,44.008,74.896,65.322,121.031,48.186c21.219-7.881,39.033-23.053,50.506-42.531
		c11.943-20.272,15.35-44.334,11.277-67.323c-6.896-38.921-39.682-70.371-78.295-77.212C71.265-3.247,28.118,18.408,9.028,56.916
		C3.89,67.279,19.415,76.402,24.571,66c9.951-20.073,27.146-35.254,48.626-41.907c20.927-6.481,43.827-3.59,62.774,7.203
		c37.75,21.501,50.367,70.973,29.051,108.398c-13.984,24.555-40.658,39.454-68.723,39.667c-30.69,0.234-58.258-18.143-71.729-45.321
		C19.415,123.639,3.891,132.762,9.028,143.125L9.028,143.125z"/>
	<path fill="#0095DA" d="M36.636,79.179c-3.609,0-6.629,2.936-6.629,6.628v16.947c0,2.851-2.265,5.2-5.117,5.2
		c-2.852,0-5.201-2.349-5.201-5.2V85.808c0-3.692-2.937-6.628-6.629-6.628c-3.607,0-6.543,2.936-6.543,6.628v16.947
		c0,4.864,1.931,9.479,5.369,13.003c3.439,3.439,8.054,5.369,13.004,5.369c4.865,0,9.48-1.93,12.919-5.369
		c3.524-3.523,5.454-8.139,5.454-13.003V85.808C43.263,82.115,40.242,79.179,36.636,79.179z"/>
</g>
</svg>
