<?xml version="1.0" encoding="UTF-8" standalone="no"?>
<!-- Created with Inkscape (http://www.inkscape.org/) -->

<svg
   xmlns:dc="http://purl.org/dc/elements/1.1/"
   xmlns:cc="http://creativecommons.org/ns#"
   xmlns:rdf="http://www.w3.org/1999/02/22-rdf-syntax-ns#"
   xmlns:svg="http://www.w3.org/2000/svg"
   xmlns="http://www.w3.org/2000/svg"
   version="1.1"
   width="1052.3622"
   height="744.09448"
   id="svg2">
  <defs
     id="defs4">
    <style
       type="text/css"
       id="style2989" />
  </defs>
  <metadata
     id="metadata7">
    <rdf:RDF>
      <cc:Work
         rdf:about="">
        <dc:format>image/svg+xml</dc:format>
        <dc:type
           rdf:resource="http://purl.org/dc/dcmitype/StillImage" />
        <dc:title></dc:title>
      </cc:Work>
    </rdf:RDF>
  </metadata>
  <g
     transform="translate(0,-308.2677)"
     id="layer1">
    <g
       transform="matrix(0.03543288,0,0,0.03543288,95.089001,345.25543)"
       id="g3019"
       style="fill-rule:evenodd">
      <g
         id="Capa_x0020_1">
        <metadata
           id="CorelCorpID_0Corel-Layer" />
        <rect
           width="25000"
           height="18786"
           x="0"
           y="0"
           id="rect2993"
           style="fill:#fefefe" />
        <g
           id="_1029343015824">
          <g
             id="g2996">
            <path
               d="m 12499,2020 c 993,0 1834,558 2126,1329 5,14 3,29 -7,40 -9,12 -23,17 -38,14 -640,-111 -1343,-173 -2081,-173 -737,0 -1440,62 -2080,173 -15,3 -29,-2 -38,-14 -10,-11 -12,-26 -7,-40 291,-771 1133,-1329 2125,-1329 z"
               id="path2998"
               style="fill:#f6d42a" />
            <path
               d="m 8413,4062 c 667,0 1234,354 1444,847 2,7 0,14 -6,17 -6,4 -13,2 -17,-3 -293,-363 -820,-605 -1421,-605 -601,0 -1127,242 -1420,605 -4,5 -12,7 -18,3 -5,-3 -8,-10 -5,-17 210,-493 777,-847 1443,-847 z m 5680,-385 c 336,31 654,72 949,121 54,9 121,18 183,29 16,3 28,14 32,30 3,16 -2,32 -15,42 -50,39 -98,80 -144,125 -314,306 -531,717 -596,1179 -3,20 -20,34 -40,34 -20,1 -37,-14 -40,-33 -19,-112 -28,-226 -28,-342 0,-238 40,-466 113,-678 2,-8 1,-16 -3,-23 -5,-7 -11,-11 -20,-12 -606,-73 -1283,-114 -1998,-114 -715,0 -1392,41 -1999,114 -8,1 -15,5 -19,12 -5,7 -6,15 -3,23 73,212 113,440 113,678 0,116 -10,230 -28,342 -3,19 -20,34 -40,33 -20,0 -37,-14 -40,-34 -65,-462 -282,-873 -596,-1179 -46,-45 -95,-86 -145,-125 -12,-10 -18,-26 -14,-42 4,-16 16,-27 32,-30 61,-11 128,-20 182,-29 373,-62 783,-111 1219,-144 970,-73 1978,-67 2945,23 z m 2472,385 c 666,0 1233,354 1443,847 3,7 0,14 -5,17 -6,4 -13,2 -18,-3 -293,-363 -819,-605 -1420,-605 -601,0 -1128,242 -1421,605 -4,5 -11,7 -17,3 -6,-3 -8,-10 -5,-17 209,-493 776,-847 1443,-847 z m -208,6439 c -1069,648 -2406,1034 -3858,1034 -1451,0 -2788,-386 -3857,-1034 -12,-8 -16,-23 -10,-35 6,-13 21,-18 34,-13 1119,437 2431,688 3833,688 1403,0 2714,-251 3834,-688 13,-5 28,0 34,13 6,12 2,27 -10,35 z"
               id="path3000"
               style="fill:#45a1a6" />
            <path
               d="m 6367,5913 c 65,-91 137,-176 207,-263 4,-4 10,-6 15,-4 6,2 9,7 9,13 -1,55 -6,110 -12,165 -14,134 -38,268 -79,397 -16,47 -35,95 -59,139 -22,38 -47,74 -73,109 -11,13 -14,31 -22,46 -20,55 -44,109 -63,164 -14,45 -33,88 -45,133 -6,26 -14,52 -22,78 -9,33 -16,66 -25,99 -8,33 -17,65 -20,98 0,15 -1,30 0,46 0,4 3,7 7,7 4,1 8,-2 9,-5 9,-29 19,-57 32,-84 48,-110 105,-216 166,-319 21,-37 43,-73 64,-110 6,-10 11,-20 17,-30 2,-3 5,-4 9,-4 3,1 6,3 6,7 3,13 4,26 6,38 11,74 19,149 23,224 6,106 5,212 -6,318 -8,67 -19,134 -40,198 -42,118 -68,140 -88,277 -6,36 -9,67 -10,96 -5,87 5,150 8,254 1,29 23,171 31,202 4,16 1,36 14,48 4,7 15,4 19,-2 2,-6 1,-12 2,-18 1,-51 6,-100 9,-151 13,-145 36,-290 58,-434 1,-6 5,-10 10,-12 6,-1 12,2 15,7 40,67 76,137 111,208 57,122 109,247 146,377 27,99 49,200 48,303 -2,96 -16,192 -31,287 -1,22 53,226 65,256 13,31 18,64 30,95 40,103 47,143 104,237 4,7 8,15 9,23 -4,12 -14,23 -27,20 -9,-2 -30,-17 -54,-36 -80,-62 -146,-126 -221,-193 -24,-22 -47,-41 -65,-55 -5,-4 -65,-55 -67,-56 -37,-4 -72,-14 -106,-27 -19,-8 -40,-15 -57,-28 -99,-51 -183,-129 -247,-220 -79,-124 -151,-253 -217,-384 -70,-139 -134,-282 -189,-427 -4,-10 -9,-21 -12,-32 -2,-4 -1,-7 1,-11 2,-3 5,-6 9,-6 24,-5 49,-4 73,0 61,9 120,33 176,59 28,14 55,31 81,48 14,13 30,22 45,34 12,9 24,17 35,27 3,2 7,2 10,0 3,-3 4,-7 2,-10 -10,-22 -21,-43 -30,-65 -11,-26 -23,-53 -36,-78 -31,-63 -63,-124 -88,-190 -3,-7 -4,-16 -11,-20 -21,-14 -41,-31 -58,-49 -7,-9 -14,-17 -21,-25 -53,-60 -91,-132 -112,-209 -43,-183 -68,-370 -78,-557 -3,-25 -1,-49 -4,-73 0,-18 0,-35 0,-52 0,-7 3,-13 8,-17 6,-5 13,-6 20,-4 32,10 61,29 87,49 42,33 80,70 112,112 15,25 34,47 48,72 8,12 16,25 23,39 1,3 5,5 9,4 3,-1 6,-4 6,-8 0,-11 0,-22 0,-34 -11,-104 -39,-242 -65,-347 -10,-43 -26,-86 -48,-126 -38,-74 -58,-156 -58,-238 -3,-132 4,-264 17,-395 8,-74 17,-149 31,-222 1,-5 3,-8 7,-10 4,-2 8,-2 12,0 11,6 21,14 31,22 36,31 64,71 89,112 13,23 26,46 34,71 32,73 52,150 61,229 4,43 4,86 3,129 0,4 3,8 7,8 4,1 8,-2 9,-5 15,-54 33,-106 56,-156 30,-66 74,-124 115,-183 z"
               id="path3002"
               style="fill:#65914e;fill-rule:nonzero" />
            <path
               d="m 18633,5913 c -65,-91 -137,-176 -207,-263 -4,-4 -10,-6 -15,-4 -6,2 -9,7 -9,13 1,55 6,110 12,165 14,134 38,268 79,397 16,47 35,95 59,139 22,38 47,74 73,109 11,13 14,31 22,46 20,55 44,109 63,164 14,45 33,88 45,133 6,26 14,52 22,78 9,33 16,66 25,99 8,33 17,65 20,98 0,15 1,30 0,46 0,4 -3,7 -7,7 -4,1 -8,-2 -9,-5 -9,-29 -19,-57 -32,-84 -48,-110 -105,-216 -166,-319 -21,-37 -42,-73 -64,-110 -6,-10 -11,-20 -17,-30 -2,-3 -5,-4 -9,-4 -3,1 -5,3 -6,7 -3,13 -4,26 -6,38 -11,74 -19,149 -23,224 -6,106 -5,212 6,318 8,67 19,134 40,198 42,118 68,140 88,277 6,36 9,67 10,96 5,87 -5,150 -8,254 -1,29 -23,171 -31,202 -4,16 -1,36 -14,48 -4,7 -15,4 -19,-2 -2,-6 -1,-12 -2,-18 -1,-51 -6,-100 -9,-151 -13,-145 -36,-290 -58,-434 -1,-6 -5,-10 -10,-12 -6,-1 -12,2 -15,7 -40,67 -76,137 -111,208 -57,122 -109,247 -146,377 -27,99 -49,200 -48,303 2,96 16,192 31,287 1,22 -53,226 -65,256 -13,31 -18,64 -30,95 -40,103 -47,143 -104,237 -4,7 -8,15 -9,23 4,12 14,23 27,20 9,-2 30,-17 54,-36 80,-62 146,-126 221,-193 24,-22 47,-41 65,-55 5,-4 65,-55 67,-56 37,-4 72,-14 106,-27 19,-8 40,-15 57,-28 99,-51 183,-129 247,-220 79,-124 151,-253 217,-384 70,-139 135,-282 189,-427 4,-10 9,-21 12,-32 2,-4 1,-7 -1,-11 -2,-3 -5,-6 -9,-6 -24,-5 -49,-4 -73,0 -61,9 -120,33 -176,59 -28,14 -55,31 -81,48 -14,13 -30,22 -45,34 -12,9 -24,17 -35,27 -3,2 -7,2 -10,0 -3,-3 -4,-7 -2,-10 10,-22 21,-43 30,-65 11,-26 23,-53 36,-78 31,-63 63,-124 88,-190 3,-7 4,-16 11,-20 21,-14 41,-31 58,-49 7,-9 14,-17 21,-25 53,-60 91,-132 112,-209 43,-183 68,-370 78,-557 3,-25 1,-49 4,-73 0,-18 0,-35 0,-52 0,-7 -3,-13 -8,-17 -6,-5 -13,-6 -20,-4 -32,10 -60,29 -87,49 -42,33 -80,70 -112,112 -15,25 -34,47 -48,72 -8,12 -16,25 -23,39 -1,3 -5,5 -9,4 -3,-1 -6,-4 -6,-8 0,-11 0,-22 0,-34 11,-104 39,-242 65,-347 10,-43 26,-86 48,-126 38,-74 58,-156 58,-238 3,-132 -4,-264 -17,-395 -8,-74 -17,-149 -31,-222 0,-5 -3,-8 -7,-10 -4,-2 -8,-2 -12,0 -11,6 -21,14 -31,22 -36,31 -64,71 -89,112 -13,23 -26,46 -34,71 -32,73 -52,150 -61,229 -4,43 -4,86 -3,129 0,4 -3,8 -7,8 -4,1 -8,-2 -9,-5 -15,-54 -33,-106 -56,-156 -30,-66 -74,-124 -115,-183 z"
               id="path3004"
               style="fill:#65914e;fill-rule:nonzero" />
            <path
               d="m 11893,6387 c 288,-77 553,159 820,40 322,-143 587,96 871,209 292,117 612,103 918,75 384,-35 768,-72 1151,-111 354,-35 708,-71 1062,-108 177,-18 354,-36 531,-54 95,-9 434,-101 501,-8 75,104 -326,141 -367,148 l -2238,378 -977,165 c -142,24 -353,74 -496,50 -264,-45 -485,-276 -741,-351 -122,-37 -256,162 -329,235 -136,135 -271,271 -404,410 -46,48 -239,187 -111,249 107,52 283,-23 389,-53 145,-42 295,-92 424,-170 186,-113 223,-87 392,49 117,95 238,187 350,287 104,91 155,209 231,321 68,101 172,246 280,305 128,70 354,57 497,74 330,38 662,69 991,112 322,43 681,34 995,118 138,36 34,127 -57,125 -168,-3 -337,-8 -505,-12 -382,-9 -764,-19 -1146,-27 -140,-3 -280,-11 -420,-12 -173,-2 -142,103 -186,234 -88,263 -310,422 -579,453 -248,29 -407,366 -630,474 -110,53 -249,98 -370,103 -103,4 -265,-112 -347,-60 -97,62 -233,97 -333,5 -46,-42 -27,-107 -80,-150 -44,-36 -103,-52 -151,-82 -39,-24 -85,-80 -134,-85 -58,-7 -98,12 -156,-13 -151,-64 -192,-208 -278,-327 -57,-80 -195,-30 -268,-128 -86,-116 -101,-252 -138,-385 -14,-54 -168,-67 -350,-64 l -1961,77 c -59,1 -119,2 -177,-2 -31,-1 -103,-26 -80,-75 36,-76 177,-66 243,-73 686,-67 1371,-151 2057,-225 300,-32 619,-126 886,63 273,194 480,538 679,803 185,246 311,489 649,432 262,-44 552,-305 709,-515 70,-94 213,-51 313,-102 99,-50 217,-177 183,-299 -30,-109 -172,-206 -247,-283 -119,-125 -242,-245 -361,-370 -149,-155 -379,-525 -610,-427 -304,130 -603,190 -933,147 -399,-51 -165,-397 -26,-572 108,-135 218,-269 325,-404 124,-157 -59,-203 -183,-146 -275,126 -544,257 -838,330 -148,37 -365,-45 -513,-70 -205,-36 -411,-72 -616,-107 L 7380,6536 c -22,-6 -44,-13 -65,-21 -200,-77 68,-135 147,-129 373,31 747,66 1121,96 621,50 1242,103 1863,155 241,20 477,21 718,-6 122,-14 245,-35 362,-76 127,-45 236,-132 367,-168 z"
               id="path3006"
               style="fill:#da5544" />
          </g>
          <g
             id="g3008">
            <path
               d="m 3689,14411 c -8,-121 -13,-244 -13,-368 0,-123 5,-249 13,-377 -51,10 -102,15 -153,15 -46,0 -90,-5 -136,-13 13,126 18,252 18,375 0,87 -2,171 -7,258 -131,62 -263,94 -401,94 -439,0 -702,-307 -702,-829 0,-490 281,-803 687,-803 255,0 436,103 564,297 l 41,0 c 2,-89 25,-173 66,-249 -176,-103 -396,-158 -654,-158 -607,0 -990,365 -990,926 0,590 352,937 965,937 217,0 452,-34 702,-105 z m 1442,-559 c 0,-409 -240,-661 -628,-661 -380,0 -628,260 -628,661 0,412 238,658 628,658 380,0 628,-257 628,-658 z m -263,0 c 0,359 -140,561 -362,561 -225,0 -368,-202 -368,-561 0,-362 140,-564 368,-564 224,0 362,199 362,564 z m 1396,0 c 0,346 -130,532 -337,532 -209,0 -342,-188 -342,-532 0,-341 136,-535 342,-535 205,0 337,194 337,535 z m -901,-1340 c 13,204 16,464 16,784 l 0,288 c 0,352 0,648 -26,895 l 79,0 c 41,-63 87,-116 135,-155 113,126 246,186 414,186 329,0 544,-241 544,-637 0,-441 -194,-682 -513,-682 -194,0 -325,68 -411,223 l 0,-383 c 0,-192 0,-365 15,-519 -41,7 -84,10 -125,10 -43,0 -84,-3 -128,-10 z m 1442,1967 c 44,-8 85,-13 128,-13 43,0 87,5 130,13 -13,-197 -18,-462 -18,-792 0,-150 0,-305 18,-465 -43,8 -87,11 -130,11 -43,0 -84,-3 -128,-11 16,147 18,313 18,499 0,351 -5,603 -18,758 z m -5,-1700 c 0,84 59,142 153,142 85,0 138,-55 138,-139 0,-95 -56,-150 -148,-150 -84,0 -143,63 -143,147 z m 799,1060 c 105,-3 212,-5 324,-5 174,0 358,5 549,10 3,-26 3,-52 3,-79 0,-362 -202,-574 -539,-574 -360,0 -592,267 -592,679 0,402 227,643 610,643 171,0 324,-42 449,-121 5,-57 10,-107 21,-152 l -33,-8 c -80,105 -212,168 -373,168 -263,0 -419,-191 -419,-538 l 0,-23 z m 8,-108 c 18,-286 135,-438 327,-438 173,0 293,137 293,357 0,24 -2,52 -5,76 -204,3 -368,5 -493,5 l -122,0 z m 1100,748 c 43,-8 84,-13 128,-13 43,0 86,5 130,13 -10,-144 -15,-270 -15,-378 l 0,-273 c 0,-115 5,-217 94,-320 48,-55 120,-89 199,-89 41,0 97,11 171,29 -5,-45 -10,-87 -10,-129 0,-42 5,-83 10,-123 -20,-2 -41,-2 -59,-2 -173,0 -301,94 -400,293 l 0,-31 c 0,-71 7,-150 20,-234 -43,8 -89,11 -133,11 -46,0 -89,-3 -135,-11 20,155 20,297 20,425 0,420 -2,698 -20,832 z m 909,0 c 43,-8 84,-13 127,-13 41,0 85,5 125,13 -7,-197 -12,-396 -12,-601 0,-351 92,-524 319,-524 92,0 166,34 217,99 53,71 58,168 58,305 l 0,133 c 0,163 -7,360 -18,588 44,-8 85,-13 128,-13 41,0 84,5 125,13 -10,-171 -10,-318 -10,-441 l 0,-385 c 0,-134 -3,-236 -79,-331 -69,-81 -179,-131 -309,-131 -184,0 -334,89 -436,257 2,-79 5,-152 7,-226 -41,8 -81,11 -120,11 -41,0 -81,-3 -122,-11 18,160 18,328 18,501 0,339 -3,591 -18,756 z m 2570,-627 c 0,-409 -240,-661 -628,-661 -380,0 -628,260 -628,661 0,412 238,658 628,658 380,0 628,-257 628,-658 z m -263,0 c 0,359 -140,561 -362,561 -225,0 -368,-202 -368,-561 0,-362 141,-564 368,-564 224,0 362,199 362,564 z m 2305,-1340 c -41,7 -84,10 -125,10 -43,0 -84,-3 -128,-10 16,154 16,327 16,519 l 0,383 c -85,-150 -217,-223 -411,-223 -307,0 -513,241 -513,645 0,436 194,674 520,674 192,0 319,-84 416,-265 -2,63 -7,142 -17,234 40,-8 81,-13 122,-13 38,0 79,5 120,13 -10,-226 -15,-643 -15,-1249 0,-254 2,-493 15,-718 z m -901,1329 c 0,-333 133,-524 337,-524 209,0 342,189 342,530 0,330 -133,516 -342,516 -207,0 -337,-183 -337,-522 z m 1389,-2 c 104,-3 211,-5 324,-5 173,0 357,5 548,10 3,-26 3,-52 3,-79 0,-362 -202,-574 -539,-574 -359,0 -592,267 -592,679 0,402 227,643 610,643 171,0 325,-42 450,-121 5,-57 10,-107 20,-152 l -33,-8 c -79,105 -212,168 -373,168 -263,0 -418,-191 -418,-538 l 0,-23 z m 7,-108 c 18,-286 135,-438 327,-438 173,0 293,137 293,357 0,24 -2,52 -5,76 -204,3 -367,5 -492,5 l -123,0 z m 1496,1097 15,78 c 462,-21 608,-212 608,-687 0,-63 -5,-275 -5,-635 0,-327 7,-627 33,-897 -51,8 -102,13 -153,13 -51,0 -102,-5 -153,-13 25,249 38,716 38,1401 0,312 -5,506 -110,614 -64,63 -151,100 -273,126 z m 1041,-2141 c 21,147 28,299 28,451 l 0,612 c 0,196 6,359 95,501 110,178 311,262 610,262 508,0 763,-247 763,-740 l 0,-448 c 0,-270 10,-483 33,-638 -35,8 -74,11 -112,11 -38,0 -74,-3 -112,-11 23,171 28,347 28,530 l 0,441 c 0,254 -5,433 -136,561 -99,97 -242,150 -421,150 -242,0 -380,-87 -457,-286 -30,-82 -43,-239 -43,-480 l 0,-462 c 0,-100 10,-252 28,-454 -51,8 -102,11 -150,11 -52,0 -103,-3 -154,-11 z m 1575,2141 16,78 c 462,-21 607,-212 607,-687 0,-63 -5,-275 -5,-635 0,-327 8,-627 33,-897 -51,8 -102,13 -153,13 -51,0 -102,-5 -153,-13 25,249 38,716 38,1401 0,312 -5,506 -110,614 -63,63 -150,100 -273,126 z m 1042,-2141 c 20,147 28,299 28,451 l 0,612 c 0,196 5,359 94,501 110,178 312,262 610,262 508,0 763,-247 763,-740 l 0,-448 c 0,-270 11,-483 34,-638 -36,8 -74,11 -113,11 -38,0 -74,-3 -112,-11 23,171 28,347 28,530 l 0,441 c 0,254 -5,433 -135,561 -100,97 -243,150 -421,150 -243,0 -381,-87 -457,-286 -31,-82 -44,-239 -44,-480 l 0,-462 c 0,-100 11,-252 28,-454 -51,8 -102,11 -150,11 -51,0 -102,-3 -153,-11 z m 2241,1792 c 46,-8 94,-13 140,-13 49,0 100,5 148,13 -10,-152 -15,-307 -15,-462 l 0,-336 235,-406 c 102,-179 219,-375 352,-588 -36,8 -74,11 -112,11 -36,0 -74,-3 -110,-11 -133,312 -278,604 -439,876 l -217,-383 c -105,-186 -184,-348 -238,-493 -51,8 -104,11 -160,11 -54,0 -113,-3 -171,-11 222,344 426,695 612,1050 l 0,220 c 0,202 -7,378 -25,522 z"
               id="path3010"
               style="fill:#373435;fill-rule:nonzero" />
            <path
               d="m 4964,15997 c 0,263 185,441 460,441 274,0 458,-178 458,-441 l 0,-752 -206,0 0,750 c 0,159 -101,248 -254,248 -152,0 -251,-89 -251,-246 l 0,-752 -207,0 0,752 z m 1154,422 203,0 0,-387 c 0,-40 3,-78 14,-113 31,-100 111,-172 220,-172 104,0 130,70 130,172 l 0,500 201,0 0,-543 c 0,-223 -102,-320 -283,-320 -165,0 -255,104 -290,175 l -3,0 c 0,0 3,-27 3,-58 l 0,-98 -195,0 0,844 z m 982,-987 201,0 0,-187 -201,0 0,187 z m 0,987 203,0 0,-844 -203,0 0,844 z m 366,-422 c 0,260 201,441 450,441 249,0 449,-181 449,-441 0,-258 -200,-441 -450,-441 -248,0 -449,183 -449,441 z m 207,0 c 0,-155 110,-263 243,-263 132,0 242,108 242,263 0,157 -110,263 -242,263 -133,0 -243,-106 -243,-263 z m 155,-527 164,0 168,-225 -210,0 -122,225 z m 700,949 204,0 0,-387 c 0,-40 3,-78 14,-113 31,-100 111,-172 220,-172 104,0 129,70 129,172 l 0,500 202,0 0,-543 c 0,-223 -102,-320 -283,-320 -165,0 -255,104 -290,175 l -3,0 c 0,0 3,-27 3,-58 l 0,-98 -196,0 0,844 z m 897,173 154,0 154,-387 -200,0 -108,387 z m 931,-173 207,0 0,-405 232,0 c 213,0 362,-159 362,-387 0,-228 -149,-382 -362,-382 l -439,0 0,1174 z m 207,-591 0,-400 197,0 c 117,0 187,78 187,199 0,122 -70,201 -191,201 l -193,0 z m 676,348 c 0,168 131,262 277,262 185,0 250,-148 248,-148 l 3,0 c 0,0 -3,26 -3,59 l 0,70 187,0 0,-528 c 0,-213 -125,-335 -339,-335 -194,0 -321,104 -321,104 l 77,150 c 0,0 108,-81 225,-81 89,0 157,38 157,149 l 0,12 -28,0 c -133,0 -483,18 -483,286 z m 205,-10 c 0,-118 168,-133 272,-133 l 35,0 0,20 c 0,103 -77,222 -184,222 -83,0 -123,-53 -123,-109 z m 663,253 722,0 0,-179 -371,0 c -53,0 -77,5 -77,5 l 0,-3 c 0,0 33,-30 70,-78 l 367,-474 0,-115 -695,0 0,179 344,0 c 51,0 75,-3 75,-3 l 0,3 c 0,0 -32,30 -68,78 l -367,474 0,113 z m 1174,292 c 0,0 72,55 170,55 123,0 237,-66 294,-220 l 366,-971 -223,0 -160,490 c -15,44 -27,111 -27,111 l -4,0 c 0,0 -14,-70 -30,-114 l -171,-487 -230,0 345,830 -31,75 c -30,74 -84,109 -141,109 -46,0 -91,-35 -91,-35 l -67,157 z m 1602,-292 206,0 0,-991 374,0 0,-183 -954,0 0,183 374,0 0,991 z m 568,0 204,0 0,-334 c 0,-50 5,-96 17,-138 39,-125 137,-176 223,-176 27,0 48,3 48,3 l 0,-207 c 0,0 -18,-3 -37,-3 -125,0 -222,96 -259,216 l -3,0 c 0,0 3,-28 3,-59 l 0,-146 -196,0 0,844 z m 561,-243 c 0,168 131,262 277,262 186,0 250,-148 248,-148 l 4,0 c 0,0 -4,26 -4,59 l 0,70 188,0 0,-528 c 0,-213 -125,-335 -340,-335 -194,0 -320,104 -320,104 l 77,150 c 0,0 107,-81 224,-81 90,0 157,38 157,149 l 0,12 -27,0 c -133,0 -484,18 -484,286 z m 205,-10 c 0,-118 168,-133 272,-133 l 36,0 0,20 c 0,103 -77,222 -185,222 -83,0 -123,-53 -123,-109 z m 719,253 192,0 0,-48 c 0,-33 -3,-58 -3,-58 l 3,0 c 0,0 74,125 244,125 216,0 375,-173 375,-441 0,-261 -141,-441 -362,-441 -173,0 -245,122 -245,122 l -4,0 c 0,0 4,-30 4,-71 l 0,-362 -204,0 0,1174 z m 197,-417 c 0,-187 100,-266 205,-266 120,0 204,104 204,264 0,167 -93,262 -205,262 -137,0 -204,-129 -204,-260 z m 713,174 c 0,168 131,262 277,262 186,0 250,-148 248,-148 l 4,0 c 0,0 -4,26 -4,59 l 0,70 188,0 0,-528 c 0,-213 -125,-335 -340,-335 -194,0 -320,104 -320,104 l 77,150 c 0,0 107,-81 224,-81 90,0 157,38 157,149 l 0,12 -27,0 c -133,0 -484,18 -484,286 z m 205,-10 c 0,-118 168,-133 272,-133 l 36,0 0,20 c 0,103 -77,222 -185,222 -83,0 -123,-53 -123,-109 z m 719,-734 202,0 0,-187 -202,0 0,187 z m 0,143 0,852 c 0,137 -107,155 -165,155 -21,0 -35,-3 -35,-3 l 0,177 c 0,0 24,5 62,5 113,0 342,-35 342,-318 l 0,-868 -204,0 z m 367,422 c 0,260 200,441 450,441 248,0 449,-181 449,-441 0,-258 -201,-441 -450,-441 -249,0 -449,183 -449,441 z m 207,0 c 0,-155 110,-263 243,-263 132,0 242,108 242,263 0,157 -110,263 -242,263 -133,0 -243,-106 -243,-263 z"
               id="path3012"
               style="fill:#45a1a6;fill-rule:nonzero" />
          </g>
        </g>
      </g>
    </g>
  </g>
</svg>
